<?xml version="1.0" standalone="no"?><!DOCTYPE svg PUBLIC "-//W3C//DTD SVG 1.1//EN" "http://www.w3.org/Graphics/SVG/1.1/DTD/svg11.dtd"><svg class="icon" width="200px" height="200.00px" viewBox="0 0 1024 1024" version="1.1" xmlns="http://www.w3.org/2000/svg"><path fill="#1296db" d="M716.991999 546.538667c12.352-10.944 23.68-22.848 34.090667-35.52l0.213333 0.149333c0.917333-1.152 1.728-2.368 2.645333-3.52 2.773333-3.498667 5.418667-7.082667 8.042667-10.688 3.754667-5.12 7.338667-10.368 10.752-15.701333 1.408-2.218667 2.816-4.416 4.138667-6.634667 8.64-14.293333 16.106667-29.205333 22.357333-44.650667 0.192-0.448 0.384-0.874667 0.554667-1.322667 14.677333-36.736 22.698667-76.117333 22.698667-116.181333 0-137.450667-89.28-254.144-212.757333-296-1.194667-0.405333-2.410667-0.789333-3.605333-1.173333C598.698666 12.906667 591.253333 10.666667 583.594666 8.810667c-3.072-0.768-6.208-1.301333-9.301333-1.984-6.208-1.322667-12.373333-2.666667-18.688-3.605333-6.272-0.938667-12.650667-1.472-19.008-2.005333-3.584-0.32-7.104-0.896-10.730667-1.066667-0.128 0-0.256-0.021333-0.384-0.021333-5.397333-0.277333-10.709333 0.021333-16.064 0.021333-5.333333 0-10.645333-0.298667-16.042667-0.021333-0.128 0-0.256 0.021333-0.384 0.021333-3.626667 0.170667-7.125333 0.746667-10.709333 1.066667-6.378667 0.533333-12.757333 1.066667-19.029333 2.005333-6.336 0.917333-12.501333 2.282667-18.688 3.605333-3.114667 0.682667-6.250667 1.216-9.322667 1.984-7.658667 1.856-15.104 4.096-22.528 6.528-1.216 0.384-2.410667 0.768-3.605333 1.173333C285.631999 58.368 196.351999 175.061333 196.351999 312.490667c0 40.042667 8.021333 79.466667 22.741333 116.202667 0.149333 0.426667 0.341333 0.853333 0.512 1.28 6.250667 15.466667 13.738667 30.4 22.4 44.693333 1.344 2.218667 2.709333 4.416 4.096 6.570667 3.498667 5.461333 7.146667 10.794667 11.008 16.042667 2.56 3.498667 5.098667 6.976 7.808 10.368 0.917333 1.173333 1.728 2.389333 2.666667 3.541333l0.192-0.149333c10.389333 12.650667 21.738667 24.576 34.090667 35.52C170.453333 622.869333 102.954666 770.645333 102.954666 930.112L102.954666 1024l332.437333 0 21.248 0 464.405333 0 0-93.888C921.023999 770.645333 848.383999 622.869333 716.991999 546.538667zM456.618666 921.685333l-21.248 0L205.375999 921.685333c3.690667-147.392 83.242667-279.893333 220.117333-316.992l59.008-16c0.981333-0.256 1.685333-0.832 2.624-1.173333l0-57.130667-55.914667-22.528c-90.944-36.586667-145.386667-130.368-129.109333-230.677333 2.581333-15.786667 6.997333-30.954667 12.970667-45.376 0.32-0.746667 0.618667-1.536 0.917333-2.282667 1.834667-4.266667 3.818667-8.469333 5.930667-12.586667 0.746667-1.450667 1.536-2.858667 2.304-4.266667 3.754667-6.933333 7.893333-13.610667 12.373333-20.074667 1.066667-1.536 2.069333-3.114667 3.178667-4.629333 2.197333-3.008 4.544-5.845333 6.890667-8.725333 1.813333-2.218667 3.690667-4.437333 5.610667-6.570667 2.24-2.517333 4.501333-5.034667 6.848-7.466667 3.712-3.776 7.552-7.424 11.52-10.901333 2.026667-1.770667 4.117333-3.434667 6.208-5.12 3.562667-2.88 7.146667-5.696 10.901333-8.341333 1.856-1.322667 3.754667-2.624 5.674667-3.904 4.586667-3.050667 9.322667-5.930667 14.165333-8.64 0.896-0.490667 1.749333-1.045333 2.666667-1.536 6.058667-3.242667 12.309333-6.165333 18.688-8.810667 1.088-0.448 2.24-0.853333 3.349333-1.301333 5.504-2.176 11.136-4.096 16.874667-5.802667 1.322667-0.384 2.645333-0.832 3.989333-1.173333 6.570667-1.834667 13.269333-3.370667 20.096-4.544 12.266667-2.069333 24.277333-2.752 36.16-2.752 11.904 0 23.914667 0.704 36.181333 2.752 6.826667 1.194667 13.504 2.709333 20.096 4.544 1.344 0.362667 2.666667 0.789333 4.010667 1.173333 5.717333 1.706667 11.328 3.648 16.853333 5.802667 1.109333 0.448 2.261333 0.832 3.370667 1.301333 6.378667 2.666667 12.629333 5.568 18.688 8.810667 0.917333 0.490667 1.770667 1.045333 2.688 1.557333 4.864 2.666667 9.536 5.568 14.144 8.597333 1.92 1.28 3.818667 2.581333 5.696 3.904 3.712 2.645333 7.296 5.418667 10.837333 8.298667 2.154667 1.749333 4.288 3.477333 6.378667 5.312 3.946667 3.434667 7.701333 7.04 11.349333 10.752 2.368 2.432 4.629333 4.949333 6.890667 7.488 1.92 2.133333 3.776 4.309333 5.589333 6.528 2.346667 2.88 4.736 5.76 6.912 8.768 1.109333 1.472 2.069333 3.029333 3.114667 4.522667 4.522667 6.485333 8.661333 13.226667 12.437333 20.202667 0.768 1.408 1.557333 2.773333 2.261333 4.202667 2.133333 4.138667 4.096 8.362667 5.930667 12.629333 0.341333 0.746667 0.597333 1.493333 0.917333 2.24 5.973333 14.421333 10.410667 29.632 12.992 45.418667 16.277333 100.309333-38.165333 194.069333-129.109333 230.677333l-55.914667 22.528 0 57.130667c0.938667 0.341333 1.642667 0.917333 2.645333 1.173333l58.986667 16c136.874667 37.098667 221.568 169.6 225.258667 316.992L456.618666 921.685333z" /></svg>